<svg width="34" height="32" viewBox="0 0 34 32" fill="none" xmlns="http://www.w3.org/2000/svg">
<path d="M24.6002 2.19966C24.3374 0.946405 23.1962 0 21.8313 0C21.5193 0 21.2661 0.245812 21.2661 0.549916C21.2661 0.85402 21.5193 1.09983 21.8313 1.09983C22.7661 1.09983 23.5269 1.84002 23.5269 2.74958C23.5269 3.65914 22.7661 4.39933 21.8313 4.39933C21.5193 4.39933 21.2661 4.64514 21.2661 4.94924C21.2661 5.25335 21.5193 5.49916 21.8313 5.49916C23.1957 5.49916 24.3374 4.55275 24.6002 3.2995H32.0048V8.24874H1.48442V3.2995H9.3971H11.0927C11.4047 3.2995 11.6579 3.05368 11.6579 2.74958C11.6579 2.44548 11.4047 2.19966 11.0927 2.19966H10.0663C10.3003 1.56066 10.922 1.09983 11.6579 1.09983C12.5927 1.09983 13.3534 1.84002 13.3534 2.74958C13.3534 3.65914 12.5927 4.39933 11.6579 4.39933C11.3459 4.39933 11.0927 4.64514 11.0927 4.94924C11.0927 5.25335 11.3459 5.49916 11.6579 5.49916C13.2161 5.49916 14.4838 4.2657 14.4838 2.74958C14.4838 1.23346 13.2161 0 11.6579 0C10.2935 0 9.1518 0.946405 8.88899 2.19966H0.354034V9.34857V31.3452H33.1351V9.34857V2.19966H24.6002ZM32.0048 30.2454H1.48442V9.34857H32.0048V30.2454Z" fill="white"/>
<path d="M15.049 1.09983C15.9839 1.09983 16.7446 1.84002 16.7446 2.74958C16.7446 3.65914 15.9839 4.39933 15.049 4.39933C14.7371 4.39933 14.4839 4.64514 14.4839 4.94924C14.4839 5.25335 14.7371 5.49916 15.049 5.49916C16.6073 5.49916 17.875 4.2657 17.875 2.74958C17.875 1.23346 16.6073 0 15.049 0C14.7371 0 14.4839 0.245812 14.4839 0.549916C14.4839 0.85402 14.7371 1.09983 15.049 1.09983Z" fill="white"/>
<path d="M18.4402 1.09983C19.375 1.09983 20.1358 1.84002 20.1358 2.74958C20.1358 3.65914 19.375 4.39933 18.4402 4.39933C18.1282 4.39933 17.875 4.64514 17.875 4.94924C17.875 5.25335 18.1282 5.49916 18.4402 5.49916C19.9984 5.49916 21.2662 4.2657 21.2662 2.74958C21.2662 1.23346 19.9984 0 18.4402 0C18.1282 0 17.875 0.245812 17.875 0.549916C17.875 0.85402 18.1282 1.09983 18.4402 1.09983Z" fill="white"/>
<path d="M5.4408 13.7475H17.875C18.187 13.7475 18.4402 13.5017 18.4402 13.1976C18.4402 12.8935 18.187 12.6476 17.875 12.6476H5.4408C5.12882 12.6476 4.87561 12.8935 4.87561 13.1976C4.87561 13.5017 5.12882 13.7475 5.4408 13.7475Z" fill="white"/>
<path d="M28.0485 21.4467H19.5706C19.2586 21.4467 19.0054 21.6925 19.0054 21.9966C19.0054 22.3007 19.2586 22.5465 19.5706 22.5465H28.0485C28.3605 22.5465 28.6137 22.3007 28.6137 21.9966C28.6137 21.6925 28.3605 21.4467 28.0485 21.4467Z" fill="white"/>
<path d="M5.4408 18.1472H11.0927C11.4047 18.1472 11.6579 17.9014 11.6579 17.5973C11.6579 17.2932 11.4047 17.0474 11.0927 17.0474H5.4408C5.12882 17.0474 4.87561 17.2932 4.87561 17.5973C4.87561 17.9014 5.12882 18.1472 5.4408 18.1472Z" fill="white"/>
<path d="M28.0485 25.8459H22.3966C22.0846 25.8459 21.8314 26.0917 21.8314 26.3958C21.8314 26.6999 22.0846 26.9457 22.3966 26.9457H28.0485C28.3605 26.9457 28.6137 26.6999 28.6137 26.3958C28.6137 26.0917 28.3605 25.8459 28.0485 25.8459Z" fill="white"/>
<path d="M16.1794 17.5973C16.1794 17.9014 16.4326 18.1472 16.7446 18.1472H25.2225C25.5345 18.1472 25.7877 17.9014 25.7877 17.5973C25.7877 17.2932 25.5345 17.0474 25.2225 17.0474H16.7446C16.4326 17.0474 16.1794 17.2932 16.1794 17.5973Z" fill="white"/>
<path d="M14.32 17.988C14.4217 17.8835 14.4839 17.7405 14.4839 17.5975C14.4839 17.454 14.4217 17.311 14.32 17.2071C14.1109 17.0036 13.7265 17.0036 13.5174 17.2071C13.4157 17.311 13.3535 17.454 13.3535 17.5975C13.3535 17.7405 13.4157 17.8835 13.5174 17.988C13.6248 18.0919 13.7718 18.1475 13.9187 18.1475C14.0657 18.1475 14.2126 18.0919 14.32 17.988Z" fill="white"/>
<path d="M7.70154 21.9966C7.70154 22.3007 7.95474 22.5465 8.26673 22.5465H16.7446C17.0566 22.5465 17.3098 22.3007 17.3098 21.9966C17.3098 21.6925 17.0566 21.4467 16.7446 21.4467H8.26673C7.95474 21.4467 7.70154 21.6925 7.70154 21.9966Z" fill="white"/>
<path d="M5.4408 22.5469C5.58775 22.5469 5.7347 22.4864 5.84209 22.3875C5.94382 22.283 6.00599 22.14 6.00599 21.997C6.00599 21.8535 5.94382 21.7105 5.84209 21.6121C5.63297 21.4031 5.24864 21.4031 5.03952 21.6066C4.93778 21.7105 4.87561 21.8535 4.87561 21.997C4.87561 22.14 4.93778 22.283 5.03952 22.3875C5.1469 22.4864 5.2882 22.5469 5.4408 22.5469Z" fill="white"/>
<path d="M28.0485 18.1475C28.1954 18.1475 28.3424 18.0919 28.4498 17.988C28.5571 17.8835 28.6137 17.7405 28.6137 17.5975C28.6137 17.454 28.5571 17.311 28.4498 17.2071C28.235 17.0036 27.8563 17.0036 27.6472 17.2071C27.5454 17.311 27.4833 17.454 27.4833 17.5975C27.4833 17.7405 27.5454 17.8835 27.6472 17.988C27.7546 18.0919 27.9015 18.1475 28.0485 18.1475Z" fill="white"/>
<path d="M19.5706 25.8459H5.4408C5.12882 25.8459 4.87561 26.0917 4.87561 26.3958C4.87561 26.6999 5.12882 26.9457 5.4408 26.9457H19.5706C19.8826 26.9457 20.1358 26.6999 20.1358 26.3958C20.1358 26.0917 19.8826 25.8459 19.5706 25.8459Z" fill="white"/>
</svg>
