<svg width="34" height="30" viewBox="0 0 34 30" fill="none" xmlns="http://www.w3.org/2000/svg">
<path d="M22.4261 9.56018L17.5806 8.10643C17.2169 7.99791 16.843 7.9597 16.4726 7.97323V7.96076H10.5833L0.139648 4.49023L0.171223 19.1652L3.1692 20.6637L4.94426 16.3243L7.53734 17.3617L8.20969 15.6814L9.18345 16.6551L8.27496 17.5639C7.95921 17.8796 7.77826 18.3164 7.77826 18.7632C7.77826 19.6775 8.50739 20.421 9.41429 20.4531C9.44586 21.3393 10.1583 22.0517 11.0445 22.0833C11.0761 22.9695 11.7885 23.6819 12.6747 23.7135C12.7073 24.6204 13.4502 25.3495 14.3648 25.3495C14.8114 25.3495 15.2484 25.1685 15.5639 24.8528L16.4726 23.9443L16.8377 24.3094C17.1535 24.6251 17.5902 24.8061 18.037 24.8061C18.9516 24.8061 19.6948 24.077 19.7269 23.1701C20.6131 23.1385 21.3255 22.4261 21.3571 21.5399C22.2433 21.5083 22.9557 20.7959 22.9873 19.9097C23.8942 19.877 24.6236 19.1341 24.6236 18.2198C24.6236 18.1426 24.6111 18.0664 24.6008 17.9897L25.3806 17.2099L26.0107 18.4708L29.424 16.7639L31.4866 20.702L33.8613 19.1195V5.07476L22.4261 9.56018ZM2.60616 19.1673L1.25696 18.4925L1.22963 5.99758L7.18418 7.97668L2.60616 19.1673ZM6.93212 15.9488L5.35526 15.3184L8.21791 8.32002L9.77567 8.83795L6.93212 15.9488ZM8.86506 18.7632C8.86506 18.6027 8.92953 18.4458 9.04309 18.332L9.99855 17.3768C10.1121 17.2633 10.2692 17.1985 10.4294 17.1985C10.7654 17.1985 11.0386 17.4721 11.0386 17.8077C11.0386 17.968 10.9739 18.1251 10.8603 18.2386L9.90515 19.1941C9.79159 19.3076 9.63451 19.3721 9.47425 19.3721C9.13835 19.3721 8.86506 19.0988 8.86506 18.7632ZM10.4952 20.3934C10.4952 20.2328 10.5597 20.076 10.6733 19.9622L11.6287 19.007C11.7423 18.8935 11.8994 18.8287 12.0596 18.8287C12.3955 18.8287 12.6688 19.1023 12.6688 19.4379C12.6688 19.5982 12.6041 19.7553 12.4905 19.8688L11.5353 20.8243C11.4218 20.9378 11.2647 21.0023 11.1044 21.0023C10.7685 21.0023 10.4952 20.729 10.4952 20.3934ZM12.1254 22.0236C12.1254 21.863 12.1899 21.7062 12.3035 21.5924L13.2589 20.6372C13.3725 20.5237 13.5296 20.4589 13.6898 20.4589C14.0257 20.4589 14.299 20.7325 14.299 21.0681C14.299 21.2284 14.2343 21.3854 14.1207 21.499L13.1655 22.4545C13.052 22.568 12.8949 22.6325 12.7346 22.6325C12.3987 22.6325 12.1254 22.3592 12.1254 22.0236ZM15.7509 23.1292L14.7957 24.0847C14.6822 24.1982 14.5251 24.2627 14.3648 24.2627C14.0289 24.2627 13.7556 23.9894 13.7556 23.6538C13.7556 23.4932 13.8201 23.3364 13.9337 23.2226L14.8891 22.2674C15.0027 22.1538 15.1598 22.0891 15.32 22.0891C15.6559 22.0891 15.9292 22.3627 15.9292 22.6983C15.9292 22.8586 15.8645 23.0156 15.7509 23.1292ZM22.9276 18.8287C22.7673 18.8287 22.6103 18.7642 22.4967 18.6507L17.9436 14.0973L17.1752 14.8657L21.7283 19.4188C21.8419 19.5326 21.9066 19.6895 21.9066 19.85C21.9066 20.1856 21.6333 20.4589 21.2974 20.4589C21.1371 20.4589 20.9801 20.3944 20.8665 20.2809L16.3134 15.7275L15.545 16.4959L20.0981 21.049C20.2117 21.1628 20.2764 21.3196 20.2764 21.4802C20.2764 21.8158 20.0031 22.0891 19.6672 22.0891C19.5069 22.0891 19.3499 22.0246 19.2363 21.9111L14.6832 17.3577L13.9148 18.1261L18.4679 22.6792C18.5815 22.793 18.6462 22.9498 18.6462 23.1104C18.6462 23.446 18.3729 23.7193 18.037 23.7193C17.8768 23.7193 17.7197 23.6548 17.6061 23.5413L16.9932 22.9281C17.0041 22.8522 17.016 22.776 17.016 22.6983C17.016 21.7837 16.2866 21.0405 15.3797 21.0084C15.3482 20.1222 14.6357 19.4098 13.7495 19.3782C13.718 18.492 13.0055 17.7796 12.1193 17.748C12.0867 16.8411 11.344 16.1117 10.4294 16.1117C10.3522 16.1117 10.2761 16.1242 10.1997 16.1345L8.64828 14.5832L10.863 9.04756H14.074L12.0787 11.0431C11.758 11.3631 11.582 11.7892 11.582 12.2424C11.582 13.1774 12.3427 13.9381 13.278 13.9381C13.7246 13.9381 14.1616 13.7572 14.4771 13.4414L15.9168 12.0015C16.2113 11.708 16.73 11.6966 17.0367 11.9776L18.3071 13.1421C18.7293 13.529 19.1984 13.8508 19.7004 14.1029L23.3585 17.7886C23.4721 17.9024 23.5368 18.0593 23.5368 18.2198C23.5368 18.5554 23.2635 18.8287 22.9276 18.8287ZM24.0802 16.9735L21.8466 14.723C22.0462 14.7418 22.2473 14.7532 22.45 14.7532V13.6664C21.1849 13.6664 19.9742 13.1955 19.0418 12.3406L17.7712 11.1766C17.054 10.518 15.8374 10.5443 15.1489 11.2336L13.7095 12.6733C13.5954 12.7863 13.4383 12.8513 13.278 12.8513C12.9421 12.8513 12.6688 12.5781 12.6688 12.2424C12.6688 12.0792 12.7317 11.9267 12.8469 11.8112L14.9183 9.74007C15.527 9.1314 16.441 8.89977 17.2681 9.14759L22.0685 10.5875L24.8674 16.1863L24.0802 16.9735ZM26.4966 17.0128L23.2019 10.423L25.6082 9.47899L28.9196 15.801L26.4966 17.0128ZM32.7746 18.5382L31.8886 19.1288L26.626 9.08019L32.7746 6.6686V18.5382Z" fill="#E3B873"/>
<circle cx="19.6667" cy="1.70141" r="0.485591" fill="#E3B873"/>
<circle cx="7.40991" cy="24.6306" r="0.485591" fill="#E3B873"/>
<circle cx="9.46801" cy="26.3191" r="0.485591" fill="#E3B873"/>
<circle cx="11.8166" cy="27.5579" r="0.485591" fill="#E3B873"/>
<circle cx="14.3655" cy="28.3503" r="0.485591" fill="#E3B873"/>
<circle cx="22.2141" cy="2.47436" r="0.485591" fill="#E3B873"/>
<circle cx="24.5632" cy="3.72876" r="0.485591" fill="#E3B873"/>
<path d="M26.8305 3.02686V5.82855H23.9971" stroke="#E3B873" stroke-linecap="round" stroke-linejoin="round"/>
<path d="M5.01039 24.314L5.01039 22.0471L7.27441 22.0471" stroke="#E3B873" stroke-linecap="round" stroke-linejoin="round"/>
<path d="M7.80078 5.00987C9.3359 3.67406 10.3124 3.05949 12.1519 2.34124C14.1033 1.5793 15.4237 1.40038 17.5441 1.40039" stroke="#E3B873" stroke-linecap="round"/>
<path d="M28.4046 22.4984C27.2633 24.2786 25.1376 26.0167 23.4089 26.9712C21.575 27.9837 19.6102 28.5543 16.9931 28.6906" stroke="#E3B873" stroke-linecap="round"/>
</svg>
