<svg width="41" height="35" viewBox="0 0 41 35" fill="none" xmlns="http://www.w3.org/2000/svg">
<path d="M20.8396 24.7206C20.4614 24.7206 20.1526 25.0199 20.1526 25.3917V26.7163C20.1526 27.0881 20.4614 27.3873 20.8396 27.3873C21.2178 27.3873 21.5265 27.0881 21.5265 26.7163V25.3917C21.5265 25.0199 21.2178 24.7206 20.8396 24.7206Z" fill="white" stroke="white" stroke-width="0.1"/>
<path d="M37.5581 15.4428L37.5581 15.4427C37.1069 13.2849 36.0951 11.2508 34.6321 9.5602C33.2237 7.93259 31.4214 6.65133 29.4118 5.84368C29.0828 4.50765 28.3927 3.13004 27.0386 2.09265C25.7205 1.08288 24.3931 0.888236 24.3338 0.879917L24.3338 0.879908C24.1374 0.852614 23.9377 0.909602 23.7872 1.03689C23.6366 1.16422 23.5498 1.34918 23.5498 1.54422V4.84776H21.3254C20.736 2.93366 18.9142 1.53565 16.7634 1.53565C14.5652 1.53565 12.7096 2.99559 12.1632 4.97472C9.01519 5.40046 6.11974 6.89118 3.96924 9.20468L4.00586 9.23872L3.96924 9.20468C1.69996 11.6462 0.45 14.807 0.45 18.1048C0.45 25.4944 4.38387 31.5047 5.5891 33.1702C5.97046 33.6973 6.59453 34.0115 7.2582 34.0115H9.96922C11.0961 34.0115 12.015 33.1174 12.015 32.0156V31.214C12.6849 31.3117 13.3649 31.3618 14.0457 31.3618H20.1528V32.0156C20.1528 33.1174 21.0717 34.0115 22.1986 34.0115H25.1765C26.134 34.0115 26.9756 33.3491 27.1767 32.4341L27.4969 30.9776C31.673 29.976 35.0324 27.1195 36.6959 23.4129H39.1837C39.9359 23.4129 40.55 22.816 40.55 22.0795V16.78C40.55 16.4234 40.4075 16.0882 40.1493 15.8365C39.8912 15.5849 39.5483 15.4465 39.1838 15.4465H39.1837H39.1837H39.1837H39.1836H39.1836H39.1836H39.1835L37.5592 15.4467C37.5587 15.4454 37.5584 15.4441 37.5581 15.4428ZM39.1762 22.0293H39.1761V22.0708H37.2111C37.5469 21.0272 37.7538 19.9313 37.8138 18.802C37.8337 18.4307 37.5411 18.1162 37.1633 18.0971C36.7857 18.0784 36.4615 18.3611 36.4418 18.7324C36.1746 23.755 32.6861 28.0486 27.8218 29.4988L28.6936 25.5325C28.7736 25.1689 28.5358 24.8128 28.1656 24.7355C27.7961 24.658 27.4301 24.8876 27.3503 25.2508L25.8334 32.1523C25.7678 32.4509 25.4919 32.6694 25.1765 32.6694H22.1984C21.8268 32.6694 21.5266 32.3748 21.5266 32.0156V29.3658C21.5266 28.994 21.2178 28.6948 20.8396 28.6948C20.4614 28.6948 20.1527 28.994 20.1527 29.3658V30.0197H14.0455C13.3637 30.0197 12.6831 29.9637 12.0148 29.8549V25.3914C12.0148 25.0196 11.7061 24.7204 11.3279 24.7204C10.9497 24.7204 10.6409 25.0196 10.6409 25.3914V32.0156C10.6409 32.3749 10.3407 32.6695 9.96906 32.6695H7.2582C7.03553 32.6695 6.83663 32.5694 6.71107 32.3957L6.71106 32.3957C5.56414 30.8104 1.82391 25.0966 1.82391 18.1047C1.82391 15.1413 2.94692 12.301 4.98639 10.1068L4.94977 10.0728L4.98639 10.1068C6.84008 8.11243 9.30923 6.79824 12.0037 6.35608C12.0187 6.74406 12.0834 7.12762 12.195 7.4974H12.0074C11.6292 7.4974 11.3205 7.79662 11.3205 8.16843C11.3205 8.54023 11.6292 8.83945 12.0074 8.83945H21.5191C21.8974 8.83945 22.2061 8.54023 22.2061 8.16843C22.2061 7.79662 21.8974 7.4974 21.5191 7.4974H21.3315C21.4592 7.07485 21.5258 6.63439 21.5266 6.18974H23.5498V7.50596C23.5498 7.87776 23.8585 8.17699 24.2367 8.17699C24.6149 8.17699 24.9237 7.87776 24.9237 7.50596V2.43193C25.5183 2.66114 26.343 3.1096 27.0288 3.96507C27.7404 4.85262 28.3056 6.18202 28.3056 8.1685C28.3056 8.5403 28.6144 8.83953 28.9926 8.83953C29.3708 8.83953 29.6795 8.5403 29.6795 8.1685C29.6795 7.93061 29.6716 7.68076 29.6536 7.4229C31.1527 8.14776 32.4978 9.17284 33.5829 10.4267C34.8977 11.9462 35.8068 13.7736 36.212 15.7114C36.3426 16.3363 36.9049 16.7889 37.5487 16.7888L39.1762 16.7887V22.0293ZM16.7633 2.87779C18.6334 2.87779 20.1527 4.36098 20.1527 6.18133C20.1527 6.63615 20.0552 7.08443 19.871 7.49755L13.6555 7.49755C13.4714 7.08428 13.3737 6.63614 13.3737 6.18133C13.3737 4.36091 14.8931 2.87779 16.7633 2.87779Z" fill="white" stroke="white" stroke-width="0.1"/>
<path d="M28.4116 15.8828L28.4116 15.8828C28.815 14.8281 29.8808 14.1218 31.0621 14.1218C32.2433 14.1218 33.3093 14.8281 33.7125 15.8828C33.7125 15.8828 33.7125 15.8828 33.7125 15.8829L33.6658 15.9007C33.7887 16.222 33.6211 16.5797 33.2915 16.6995L28.4116 15.8828ZM28.4116 15.8828C28.2784 16.2312 28.4605 16.6175 28.8155 16.7465M28.4116 15.8828L28.8155 16.7465M28.8155 16.7465C29.17 16.8755 29.5657 16.7001 29.6986 16.3524L28.8155 16.7465ZM33.0691 16.7888C33.1488 16.7888 33.2297 16.7752 33.3086 16.7465L29.6986 16.3524C29.9011 15.8229 30.4479 15.4638 31.062 15.4638C31.6761 15.4638 32.223 15.8229 32.4255 16.3524C32.5289 16.6229 32.7913 16.7888 33.0691 16.7888Z" fill="white" stroke="white" stroke-width="0.1"/>
<path d="M19.7116 18.5181C19.0601 18.0763 18.2201 17.8056 17.4502 17.5933V14.5143C18.0451 14.5915 18.5484 14.7638 18.9047 14.9765C19.2758 15.1982 19.4733 15.4545 19.4733 15.683C19.4733 16.0548 19.7821 16.354 20.1603 16.354C20.5385 16.354 20.8472 16.0548 20.8472 15.683C20.8472 15.0274 20.4732 14.4413 19.8589 13.9981C19.254 13.5617 18.4127 13.2606 17.4502 13.1628V13.1368C17.4502 12.765 17.1414 12.4657 16.7632 12.4657C16.385 12.4657 16.0763 12.765 16.0763 13.1368V13.1628C15.1138 13.2606 14.2724 13.5617 13.6676 13.9981C13.0533 14.4413 12.6792 15.0274 12.6792 15.683C12.6792 16.6105 13.1508 17.2414 13.8149 17.6918C14.4663 18.1336 15.3064 18.4043 16.0763 18.6166V21.6955C15.4814 21.6184 14.9781 21.4461 14.6218 21.2333C14.2506 21.0117 14.0532 20.7554 14.0532 20.5269C14.0532 20.1551 13.7444 19.8559 13.3662 19.8559C12.988 19.8559 12.6792 20.1551 12.6792 20.5269C12.6792 21.1825 13.0533 21.7686 13.6676 22.2118C14.2724 22.6482 15.1138 22.9492 16.0763 23.0471V23.0731C16.0763 23.4449 16.385 23.7441 16.7632 23.7441C17.1414 23.7441 17.4502 23.4449 17.4502 23.0731V23.0471C18.4127 22.9492 19.254 22.6482 19.8589 22.2118C20.4732 21.7686 20.8472 21.1825 20.8472 20.5269C20.8472 19.5993 20.3757 18.9684 19.7116 18.5181ZM16.0763 14.5143V17.2105C15.3286 16.9782 14.8248 16.757 14.5067 16.5156C14.1827 16.2699 14.0532 16.0051 14.0532 15.683C14.0532 15.4545 14.2506 15.1982 14.6218 14.9765C14.9781 14.7638 15.4814 14.5915 16.0763 14.5143ZM18.9047 21.2334C18.5484 21.4462 18.045 21.6185 17.4502 21.6956V18.9994C18.1979 19.2317 18.7016 19.4529 19.0198 19.6943C19.3437 19.94 19.4733 20.2049 19.4733 20.527C19.4733 20.7554 19.2758 21.0117 18.9047 21.2334Z" fill="white" stroke="white" stroke-width="0.1"/>
</svg>
