<svg width="33" height="33" viewBox="0 0 33 33" fill="none" xmlns="http://www.w3.org/2000/svg">
<path fill-rule="evenodd" clip-rule="evenodd" d="M3.25031 1.38187C3.25031 1.17097 3.42854 1 3.6484 1H32.3115C32.5314 1 32.7096 1.17097 32.7096 1.38187V29.0039C32.7096 29.2148 32.5314 29.3858 32.3115 29.3858C32.0916 29.3858 31.9134 29.2148 31.9134 29.0039V1.76374H3.6484C3.42854 1.76374 3.25031 1.59277 3.25031 1.38187Z" fill="white" stroke="white" stroke-width="0.5" stroke-linecap="round" stroke-linejoin="round"/>
<path d="M3.6681 29.5623L3.7931 29.5623L3.7931 29.4373L3.79309 5.67856L5.41897 7.30443C5.62202 7.50749 5.95124 7.50749 6.1543 7.30443C6.35735 7.10138 6.35735 6.77216 6.1543 6.5691L3.6408 4.0556C3.43775 3.85255 3.10853 3.85255 2.90547 4.0556L0.391976 6.5691C0.18892 6.77216 0.18892 7.10138 0.391976 7.30443C0.595033 7.50749 0.924251 7.50749 1.12731 7.30443L2.75318 5.67856L2.75318 29.4373L2.75318 29.5623L2.87818 29.5623L3.6681 29.5623Z" fill="white" stroke="white" stroke-width="0.25"/>
<path d="M2.7522 29.8314V29.9564H2.8772L26.7603 29.9564L25.1262 31.5821C24.922 31.7852 24.922 32.1147 25.1262 32.3179C25.33 32.5206 25.6602 32.5206 25.864 32.3179L28.3906 29.8044C28.5947 29.6013 28.5947 29.2717 28.3906 29.0686L25.864 26.5551C25.6602 26.3523 25.33 26.3523 25.1262 26.5551C24.922 26.7582 24.922 27.0878 25.1262 27.2909L26.7603 28.9165L2.8772 28.9165H2.7522V29.0415V29.8314Z" fill="white" stroke="white" stroke-width="0.25"/>
<path fill-rule="evenodd" clip-rule="evenodd" d="M14.1624 1.11568C14.3167 1.26992 14.3167 1.51999 14.1624 1.67423L9.42295 6.41373C9.26871 6.56797 9.01864 6.56797 8.8644 6.41373C8.71016 6.25949 8.71016 6.00941 8.8644 5.85517L13.6039 1.11568C13.7581 0.96144 14.0082 0.96144 14.1624 1.11568Z" fill="white" stroke="white" stroke-width="0.5" stroke-linecap="round" stroke-linejoin="round"/>
<path fill-rule="evenodd" clip-rule="evenodd" d="M32.4623 19.9423C32.6165 20.0966 32.6165 20.3467 32.4623 20.5009L28.1177 24.8454C27.9635 24.9997 27.7134 24.9997 27.5592 24.8454C27.4049 24.6912 27.4049 24.4411 27.5592 24.2869L31.9037 19.9423C32.0579 19.7881 32.308 19.7881 32.4623 19.9423Z" fill="white" stroke="white" stroke-width="0.5" stroke-linecap="round" stroke-linejoin="round"/>
<path fill-rule="evenodd" clip-rule="evenodd" d="M20.0851 1.11391C20.2403 1.26716 20.2419 1.51723 20.0886 1.67245L9.81975 12.073C9.66649 12.2282 9.41642 12.2298 9.2612 12.0766C9.10598 11.9233 9.10439 11.6732 9.25765 11.518L19.5265 1.11746C19.6798 0.962245 19.9299 0.960652 20.0851 1.11391Z" fill="white" stroke="white" stroke-width="0.5" stroke-linecap="round" stroke-linejoin="round"/>
<path fill-rule="evenodd" clip-rule="evenodd" d="M32.5938 13.3591C32.7481 13.5134 32.7481 13.7635 32.5938 13.9177L22.5882 23.9233C22.434 24.0775 22.1839 24.0775 22.0297 23.9233C21.8754 23.7691 21.8754 23.519 22.0297 23.3647L32.0353 13.3591C32.1895 13.2049 32.4396 13.2049 32.5938 13.3591Z" fill="white" stroke="white" stroke-width="0.5" stroke-linecap="round" stroke-linejoin="round"/>
<path fill-rule="evenodd" clip-rule="evenodd" d="M26.4084 1.24959C26.5614 1.40507 26.5594 1.65514 26.4039 1.80813L9.94736 18.0014C9.79188 18.1544 9.54182 18.1524 9.38883 17.9969C9.23584 17.8414 9.23785 17.5913 9.39333 17.4384L25.8499 1.24509C26.0054 1.0921 26.2554 1.09412 26.4084 1.24959Z" fill="white" stroke="white" stroke-width="0.5" stroke-linecap="round" stroke-linejoin="round"/>
<path fill-rule="evenodd" clip-rule="evenodd" d="M32.5939 7.17177C32.7482 7.32601 32.7482 7.57609 32.5939 7.73033L16.0057 24.3185C15.8515 24.4728 15.6014 24.4728 15.4472 24.3185C15.2929 24.1643 15.2929 23.9142 15.4472 23.76L32.0354 7.17177C32.1896 7.01753 32.4397 7.01753 32.5939 7.17177Z" fill="white" stroke="white" stroke-width="0.5" stroke-linecap="round" stroke-linejoin="round"/>
<path fill-rule="evenodd" clip-rule="evenodd" d="M32.3306 1.24733C32.4849 1.40157 32.4849 1.65165 32.3306 1.80589L9.68638 24.4501C9.53214 24.6044 9.28207 24.6044 9.12783 24.4501C8.97359 24.2959 8.97359 24.0458 9.12783 23.8916L31.7721 1.24733C31.9263 1.09309 32.1764 1.09309 32.3306 1.24733Z" fill="white" stroke="white" stroke-width="0.5" stroke-linecap="round" stroke-linejoin="round"/>
</svg>
